<?xml version="1.0" encoding="UTF-8"?>
<svg id="Capa_1" xmlns="http://www.w3.org/2000/svg" version="1.1" viewBox="0 0 800 800">
  <!-- Generator: Adobe Illustrator 29.3.1, SVG Export Plug-In . SVG Version: 2.1.0 Build 151)  -->
  <defs>
    <style>
      .st0 {
        fill: #f76f83;
      }

      .st1 {
        fill: #ed4367;
      }

      .st2 {
        fill: #f27e87;
      }
    </style>
  </defs>
  <path class="st0" d="M683.3,324.1v25.9H116.7v-25.9c0-110.2,134.9-140.7,283.3-140.7s283.3,30.6,283.3,140.7h0ZM683.3,475.9v-25.9H116.7v25.9c0,110.2,134.9,140.7,283.3,140.7s283.3-30.6,283.3-140.7h0Z"/>
  <path class="st2" d="M683.3,400c0,18.4-14.9,33.3-33.3,33.3H150c-18.4,0-33.3-14.9-33.3-33.3s14.9-33.3,33.3-33.3h500c18.4,0,33.3,14.9,33.3,33.3h0Z"/>
  <path class="st1" d="M700,333.3c0-9.2-7.5-16.7-16.7-16.7H116.7c-9.2,0-16.7,7.5-16.7,16.7h0v16.7c0,9.2,7.5,16.7,16.7,16.7h566.7c9.2,0,16.7-7.5,16.7-16.7v-16.7h0ZM700,450c0-9.2-7.5-16.7-16.7-16.7H116.7c-9.2,0-16.7,7.5-16.7,16.7v16.7c0,9.2,7.5,16.7,16.7,16.7h566.7c9.2,0,16.7-7.5,16.7-16.7v-16.7h0Z"/>
</svg>